<?xml version="1.0" encoding="UTF-8" standalone="no"?><!DOCTYPE svg PUBLIC "-//W3C//DTD SVG 1.1//EN" "http://www.w3.org/Graphics/SVG/1.1/DTD/svg11.dtd"><svg width="100%" height="100%" viewBox="0 0 173 125" version="1.1" xmlns="http://www.w3.org/2000/svg" xmlns:xlink="http://www.w3.org/1999/xlink" xml:space="preserve" xmlns:serif="http://www.serif.com/" style="fill-rule:evenodd;clip-rule:evenodd;stroke-linejoin:round;stroke-miterlimit:2;"><g><path d="M76.077,111.826c0.061,0.199 -0.035,0.413 -0.226,0.5c-0.19,0.086 -0.415,0.02 -0.527,-0.156c-0.001,0.001 -0.001,0.001 -0.001,0.001c-0.748,-1.175 -1.696,-2.509 -2.791,-3.952c-14.592,-19.239 -34.949,-33.363 -58.129,-40.332c-1.913,-0.579 -3.726,-1.126 -5.376,-1.607c-2.751,-0.8 -5.324,-1.549 -7.353,-2.14c-0.837,-0.243 -1.467,-0.933 -1.632,-1.786c-0.165,-0.853 0.164,-1.726 0.85,-2.261c0.47,-0.366 0.942,-0.721 1.416,-1.066c9.596,-7.04 21.866,-9.404 33.406,-6.434c0.907,0.192 1.822,0.427 2.743,0.664c12.21,3.142 23.144,9.97 31.302,19.546c-0,-0 -0,-0 -0,-0c10.641,12.491 16.54,28.305 16.667,44.684c0.059,2.706 0.099,5.077 0.077,6.765c-0.008,0.273 -0.219,0.498 -0.492,0.526c-0.273,0.028 -0.525,-0.15 -0.589,-0.416c-0.3,-1.243 -0.556,-2.307 -0.556,-2.307c-1.819,-7.563 -7.587,-17.926 -12.896,-26.391c-5.878,-9.391 -13.562,-17.532 -22.611,-23.957c-2.574,-1.871 -4.65,-3.311 -5.04,-3.484c-0.204,-0.091 -0.444,-0.017 -0.561,0.173c-0.116,0.189 -0.073,0.436 0.101,0.575c1.471,1.18 3.462,2.777 5.748,4.61c12.483,10.012 21.609,23.347 26.47,38.245Zm20.477,-4.746c-0.13,0.321 -0.457,0.517 -0.802,0.483c-0.345,-0.034 -0.626,-0.291 -0.69,-0.631c-0.127,-0.285 -0.321,-0.669 -0.571,-1.135c-8.485,-15.945 -13.09,-33.651 -13.444,-51.692c-0.026,0.001 -0.026,0.001 -0.026,0.001c-0.308,-16.072 6.046,-31.561 17.569,-42.822c5.265,-5.151 11.062,-9.597 16.508,-11.141c0.001,0 0.001,0 0.002,-0c0.856,-0.243 1.775,-0.125 2.541,0.325c0.767,0.451 2.005,2.595 2.022,2.627c-0,0 -0,0 -0,0c6.9,12.828 6.846,28.254 -0.145,41.033c-0.777,1.422 -1.563,2.858 -2.341,4.28c-8.085,14.775 -13.105,31.016 -14.764,47.76c-0.528,5.465 -0.662,10.202 0.059,12.586c0.112,0.371 -0.144,0.755 -0.522,0.846c-0.378,0.091 -0.759,-0.14 -0.852,-0.516c-0.815,-2.986 -1.834,-7.104 -1.834,-7.104c-2.866,-11.583 -4.102,-23.505 -3.674,-35.427c-0,0 -0,0 -0,0c0.21,-5.866 0.846,-11.71 1.9,-17.485c0.552,-3.019 1.155,-6.319 1.645,-9.005c0.034,-0.186 -0.083,-0.366 -0.267,-0.412c-0.184,-0.046 -0.372,0.059 -0.43,0.239c-0.013,0.04 -0.03,0.097 -0.052,0.17c-5.462,17.153 -6.849,35.335 -4.052,53.113c0.778,5.191 1.554,10.193 2.22,13.907Zm-24.792,-40.747c0.229,0.224 0.584,0.257 0.849,0.077c0.265,-0.18 0.366,-0.521 0.24,-0.815c-1.71,-3.987 -4.427,-10.32 -4.427,-10.32c-3.189,-7.434 -8.793,-13.586 -15.914,-17.47c-0,-0 -0.001,-0.001 -0.002,-0.001c-0.072,-0.039 -0.1,-0.129 -0.063,-0.202c0.037,-0.073 0.126,-0.104 0.201,-0.069c1.17,0.54 2.441,1.127 3.601,1.663c2.625,1.212 4.974,2.944 6.905,5.089c0,0 0,0.001 0.001,0.001c5.136,5.707 9.246,12.253 12.15,19.35l1.373,3.355c0.15,0.367 0.556,0.559 0.936,0.444c0.381,-0.116 0.61,-0.502 0.528,-0.889c-0.741,-3.527 -1.61,-7.663 -2.377,-11.313c-1.311,-6.234 -4.124,-12.056 -8.197,-16.966c-0,-0.001 -0,-0.001 -0,-0.001c-5.546,-6.684 -13.517,-10.92 -22.182,-11.786c-4.264,-0.421 -9.003,-0.584 -12.266,0.255c-0.464,0.119 -1.3,0.431 -2.15,0.768c-0.734,0.258 -1.306,0.842 -1.546,1.58c-0.239,0.737 -0.12,1.544 0.323,2.182c-0.003,0.002 -0.002,0.003 -0.001,0.004c1.414,2.034 4.577,4.251 8.158,6.3c10.749,6.157 20.431,14 28.673,23.226c1.729,2.013 3.51,3.912 5.187,5.538Z" style="fill:#323b45;fill-opacity:0.1;"/><g><text x="-2.962px" y="74.755px" style="font-family:'Didot-Bold', 'Didot';font-weight:700;font-size:47.407px;fill:#323b45;">S<tspan x="39.262px 90.185px 135.889px " y="74.755px 74.755px 74.755px ">HEA</tspan></text><g><path d="M6.015,78.222l-0,6.815l-1.284,0l0,-4.039l-1.283,2.726l-0.862,-0l-1.303,-2.756l0,4.069l-1.283,0l0,-6.815l1.283,0l1.734,3.763l1.714,-3.763l1.284,0Z" style="fill:#31a6af;fill-rule:nonzero;"/><path d="M22.443,83.714l-2.322,-0l-0.411,1.323l-1.352,0l2.4,-6.815l1.048,0l2.41,6.815l-1.361,0l-0.412,-1.323Zm-0.343,-1.077l-0.823,-2.617l-0.813,2.617l1.636,0Z" style="fill:#31a6af;fill-rule:nonzero;"/><path d="M41.643,78.222l0,6.815l-1.283,0l-2.488,-4.257l-0,4.257l-1.284,0l0,-6.815l1.284,0l2.488,4.267l-0,-4.267l1.283,0Z" style="fill:#31a6af;fill-rule:nonzero;"/><path d="M58.1,83.714l-2.321,-0l-0.412,1.323l-1.352,0l2.4,-6.815l1.048,0l2.41,6.815l-1.361,0l-0.412,-1.323Zm-0.343,-1.077l-0.822,-2.617l-0.814,2.617l1.636,0Z" style="fill:#31a6af;fill-rule:nonzero;"/><path d="M74.369,85.126c-1.639,0 -2.459,-0.905 -2.459,-2.716l0,-1.56c0,-1.811 0.827,-2.717 2.479,-2.717c0.738,0 1.326,0.196 1.763,0.588c0.438,0.392 0.656,0.933 0.656,1.625l0,0.069l-1.283,-0l0,-0.069c0,-0.31 -0.099,-0.566 -0.299,-0.771c-0.199,-0.204 -0.481,-0.306 -0.847,-0.306c-0.411,0 -0.71,0.129 -0.896,0.385c-0.186,0.257 -0.279,0.679 -0.279,1.265l-0,1.471c-0,0.56 0.099,0.963 0.298,1.21c0.199,0.247 0.508,0.37 0.926,0.37c0.392,0 0.678,-0.102 0.857,-0.306c0.18,-0.204 0.27,-0.513 0.27,-0.928l-0,-0.326l-1.196,0l0,-1.067l2.449,0l0,1.166c0,1.745 -0.813,2.617 -2.439,2.617Z" style="fill:#31a6af;fill-rule:nonzero;"/><path d="M90.816,79.348l-0,1.689l2.566,0l0,1.126l-2.566,0l-0,1.748l3.007,0l0,1.126l-4.291,0l0,-6.815l4.291,0l0,1.126l-3.007,0Z" style="fill:#31a6af;fill-rule:nonzero;"/><path d="M112.514,78.222l-0,6.815l-1.284,0l0,-4.039l-1.283,2.726l-0.862,-0l-1.303,-2.756l0,4.069l-1.283,0l0,-6.815l1.283,0l1.734,3.763l1.714,-3.763l1.284,0Z" style="fill:#31a6af;fill-rule:nonzero;"/><path d="M126.708,79.348l0,1.689l2.567,0l-0,1.126l-2.567,0l0,1.748l3.007,0l0,1.126l-4.29,0l-0,-6.815l4.29,0l0,1.126l-3.007,0Z" style="fill:#31a6af;fill-rule:nonzero;"/><path d="M147.446,78.222l-0,6.815l-1.283,0l-2.488,-4.257l-0,4.257l-1.284,0l0,-6.815l1.284,0l2.488,4.267l-0,-4.267l1.283,0Z" style="fill:#31a6af;fill-rule:nonzero;"/><path d="M172.8,79.348l-1.724,0l-0,5.689l-1.293,0l-0,-5.689l-1.724,0l-0,-1.126l4.741,0l0,1.126Z" style="fill:#31a6af;fill-rule:nonzero;"/></g></g></g></svg>