<?xml version="1.0" encoding="UTF-8" standalone="no"?>
<!DOCTYPE svg PUBLIC "-//W3C//DTD SVG 1.1//EN" "http://www.w3.org/Graphics/SVG/1.1/DTD/svg11.dtd">
<svg width="100%" height="100%" viewBox="0 0 100 100" version="1.1" xmlns="http://www.w3.org/2000/svg" xmlns:xlink="http://www.w3.org/1999/xlink" xml:space="preserve" xmlns:serif="http://www.serif.com/" style="fill-rule:evenodd;clip-rule:evenodd;stroke-linejoin:round;stroke-miterlimit:2;">
    <g transform="matrix(1,0,0,1,-3550,-3140)">
        <g id="mmb-glyph" transform="matrix(0.240165,0,0,0.485437,2698.95,1503.59)">
            <rect x="3543.62" y="3371" width="416.38" height="206" style="fill:none;"/>
            <g transform="matrix(3.64658,0,0,1.80411,-11563.8,-3652.96)">
                <path d="M4216.75,3977.08C4217.11,3977.1 4217.44,3976.87 4217.53,3976.52C4218.58,3972.75 4224.3,3952.16 4226.03,3945.93C4226.12,3945.62 4226.01,3945.3 4225.77,3945.11C4225.52,3944.92 4225.18,3944.9 4224.91,3945.05C4219.84,3947.92 4204.37,3956.68 4200.76,3958.72C4200.29,3958.99 4199.71,3958.99 4199.24,3958.72C4195.63,3956.68 4180.16,3947.91 4175.08,3945.04C4174.81,3944.88 4174.48,3944.91 4174.23,3945.1C4173.98,3945.29 4173.88,3945.61 4173.96,3945.91C4175.31,3950.76 4179.02,3964.11 4180.38,3969.01C4180.5,3969.46 4180.42,3969.93 4180.15,3970.31C4179.88,3970.69 4179.46,3970.93 4178.99,3970.96C4175.89,3971.16 4172.8,3971.4 4169.71,3971.68C4168.97,3971.75 4168.28,3971.28 4168.09,3970.56C4166.15,3963.59 4156.62,3929.31 4154.36,3921.13C4154.27,3920.84 4154.38,3920.52 4154.62,3920.33C4154.86,3920.13 4155.19,3920.11 4155.46,3920.25C4163.11,3924.42 4195.79,3942.25 4199.63,3944.34C4199.86,3944.47 4200.14,3944.47 4200.37,3944.34C4204.21,3942.25 4236.89,3924.42 4244.54,3920.25C4244.81,3920.11 4245.14,3920.13 4245.38,3920.33C4245.62,3920.52 4245.73,3920.84 4245.65,3921.13C4242.87,3931.13 4229.07,3980.81 4226.72,3989.27C4226.52,3989.99 4225.85,3990.45 4225.11,3990.39C4216.82,3989.72 4208.45,3989.38 4200,3989.38C4191.55,3989.38 4183.18,3989.72 4174.89,3990.39C4174.15,3990.46 4173.48,3989.99 4173.28,3989.27C4172.67,3987.06 4171.37,3982.38 4170.65,3979.81C4170.53,3979.37 4170.61,3978.9 4170.87,3978.52C4171.13,3978.15 4171.55,3977.91 4172,3977.87C4181.23,3977.06 4190.57,3976.65 4200,3976.65C4205.62,3976.65 4211.2,3976.8 4216.75,3977.08ZM4200,3910.4C4203.51,3910.4 4206.36,3913.25 4206.36,3916.76C4206.36,3920.28 4203.51,3923.13 4200,3923.13C4196.49,3923.13 4193.64,3920.28 4193.64,3916.76C4193.64,3913.25 4196.49,3910.4 4200,3910.4Z" style="fill:white;"/>
            </g>
        </g>
    </g>
</svg>
