<?xml version="1.0" encoding="UTF-8" standalone="no"?>
<!DOCTYPE svg PUBLIC "-//W3C//DTD SVG 1.1//EN" "http://www.w3.org/Graphics/SVG/1.1/DTD/svg11.dtd">
<svg width="100%" height="100%" viewBox="0 0 100 100" version="1.1" xmlns="http://www.w3.org/2000/svg" xmlns:xlink="http://www.w3.org/1999/xlink" xml:space="preserve" xmlns:serif="http://www.serif.com/" style="fill-rule:evenodd;clip-rule:evenodd;stroke-linejoin:round;stroke-miterlimit:2;">
    <g transform="matrix(1,0,0,1,-3550,-3440)">
        <g id="sm-glyph" transform="matrix(0.240165,0,0,0.485437,2698.95,1803.59)">
            <rect x="3543.62" y="3371" width="416.38" height="206" style="fill:none;"/>
            <g transform="matrix(1.11035,0,0,0.549333,864.908,2045.62)">
                <path d="M2750,2700C2750,2697.24 2747.76,2695 2745,2695C2709.09,2695 2490.91,2695 2455,2695C2452.24,2695 2450,2697.24 2450,2700C2450,2707.68 2450,2722.32 2450,2730C2450,2732.76 2452.24,2735 2455,2735C2490.91,2735 2709.09,2735 2745,2735C2747.76,2735 2750,2732.76 2750,2730C2750,2722.32 2750,2707.68 2750,2700ZM2740,2670C2740,2667.24 2737.76,2665 2735,2665C2700.61,2665 2499.39,2665 2465,2665C2462.24,2665 2460,2667.24 2460,2670C2460,2673.05 2460,2676.95 2460,2680C2460,2682.76 2462.24,2685 2465,2685C2499.39,2685 2700.61,2685 2735,2685C2737.76,2685 2740,2682.76 2740,2680C2740,2676.95 2740,2673.05 2740,2670ZM2540,2560C2540,2558.67 2539.47,2557.4 2538.54,2556.46C2537.6,2555.53 2536.33,2555 2535,2555C2527.32,2555 2512.68,2555 2505,2555C2503.67,2555 2502.4,2555.53 2501.46,2556.46C2500.53,2557.4 2500,2558.67 2500,2560C2500,2577.07 2500,2632.93 2500,2650C2500,2651.33 2500.53,2652.6 2501.46,2653.54C2502.4,2654.47 2503.67,2655 2505,2655C2512.68,2655 2527.32,2655 2535,2655C2536.33,2655 2537.6,2654.47 2538.54,2653.54C2539.47,2652.6 2540,2651.33 2540,2650C2540,2632.93 2540,2577.07 2540,2560ZM2620,2560C2620,2558.67 2619.47,2557.4 2618.54,2556.46C2617.6,2555.53 2616.33,2555 2615,2555C2607.32,2555 2592.68,2555 2585,2555C2583.67,2555 2582.4,2555.53 2581.46,2556.46C2580.53,2557.4 2580,2558.67 2580,2560C2580,2577.07 2580,2632.93 2580,2650C2580,2651.33 2580.53,2652.6 2581.46,2653.54C2582.4,2654.47 2583.67,2655 2585,2655C2592.68,2655 2607.32,2655 2615,2655C2616.33,2655 2617.6,2654.47 2618.54,2653.54C2619.47,2652.6 2620,2651.33 2620,2650C2620,2632.93 2620,2577.07 2620,2560ZM2700,2560C2700,2558.67 2699.47,2557.4 2698.54,2556.46C2697.6,2555.53 2696.33,2555 2695,2555C2687.32,2555 2672.68,2555 2665,2555C2663.67,2555 2662.4,2555.53 2661.46,2556.46C2660.53,2557.4 2660,2558.67 2660,2560C2660,2577.07 2660,2632.93 2660,2650C2660,2651.33 2660.53,2652.6 2661.46,2653.54C2662.4,2654.47 2663.67,2655 2665,2655C2672.68,2655 2687.32,2655 2695,2655C2696.33,2655 2697.6,2654.47 2698.54,2653.54C2699.47,2652.6 2700,2651.33 2700,2650C2700,2632.93 2700,2577.07 2700,2560ZM2740,2509.53C2740,2506.85 2738.22,2504.49 2735.65,2503.76C2714.2,2497.63 2620.08,2470.74 2602.75,2465.78C2600.95,2465.27 2599.05,2465.27 2597.25,2465.78C2579.92,2470.74 2485.8,2497.63 2464.35,2503.76C2461.78,2504.49 2460,2506.85 2460,2509.53C2460,2517.07 2460,2532.15 2460,2540C2460,2542.76 2462.24,2545 2465,2545C2499.39,2545 2700.61,2545 2735,2545C2737.76,2545 2740,2542.76 2740,2540C2740,2532.15 2740,2517.07 2740,2509.53Z" style="fill:white;"/>
            </g>
        </g>
    </g>
</svg>
