<?xml version="1.0" encoding="UTF-8" standalone="no"?>
<!DOCTYPE svg PUBLIC "-//W3C//DTD SVG 1.1//EN" "http://www.w3.org/Graphics/SVG/1.1/DTD/svg11.dtd">
<svg width="100%" height="100%" viewBox="0 0 100 100" version="1.1" xmlns="http://www.w3.org/2000/svg" xmlns:xlink="http://www.w3.org/1999/xlink" xml:space="preserve" xmlns:serif="http://www.serif.com/" style="fill-rule:evenodd;clip-rule:evenodd;stroke-linejoin:round;stroke-miterlimit:2;">
    <g transform="matrix(1,0,0,1,-2500,-3440)">
        <g id="sm-glyph" transform="matrix(0.240165,0,0,0.485437,1648.95,1803.59)">
            <rect x="3543.62" y="3371" width="416.38" height="206" style="fill:none;"/>
            <g transform="matrix(1.7832,0,0,0.878762,-801.359,-135.369)">
                <path d="M2566.96,4174.1C2567.04,4174.37 2566.91,4174.66 2566.66,4174.78C2566.4,4174.89 2566.1,4174.8 2565.95,4174.57C2565.95,4174.57 2565.95,4174.57 2565.95,4174.57C2564.94,4172.98 2563.67,4171.18 2562.19,4169.23C2542.57,4143.24 2515.19,4124.16 2484.01,4114.75C2481.44,4113.96 2479,4113.23 2476.78,4112.58C2473.08,4111.49 2469.62,4110.48 2466.89,4109.69C2465.77,4109.36 2464.92,4108.43 2464.7,4107.27C2464.48,4106.12 2464.92,4104.94 2465.84,4104.22C2466.47,4103.72 2467.11,4103.24 2467.75,4102.78C2480.65,4093.27 2497.15,4090.08 2512.68,4094.09C2513.9,4094.35 2515.13,4094.66 2516.37,4094.98C2532.79,4099.23 2547.49,4108.45 2558.46,4121.39C2558.46,4121.39 2558.46,4121.39 2558.46,4121.39C2572.78,4138.26 2580.71,4159.62 2580.88,4181.75C2580.96,4185.4 2581.01,4188.61 2580.98,4190.89C2580.97,4191.26 2580.69,4191.56 2580.32,4191.6C2579.95,4191.64 2579.62,4191.39 2579.53,4191.03C2579.13,4189.36 2578.78,4187.92 2578.78,4187.92C2576.34,4177.7 2568.58,4163.7 2561.44,4152.27C2553.53,4139.58 2543.2,4128.59 2531.03,4119.91C2527.57,4117.38 2524.77,4115.44 2524.25,4115.2C2523.97,4115.08 2523.65,4115.18 2523.49,4115.43C2523.34,4115.69 2523.4,4116.02 2523.63,4116.21C2525.61,4117.81 2528.29,4119.96 2531.36,4122.44C2548.15,4135.96 2560.42,4153.98 2566.96,4174.1ZM2594.5,4167.69C2594.33,4168.12 2593.89,4168.39 2593.42,4168.34C2592.96,4168.3 2592.58,4167.95 2592.5,4167.49C2592.33,4167.11 2592.06,4166.59 2591.73,4165.96C2580.32,4144.42 2574.12,4120.5 2573.65,4096.13C2573.61,4096.13 2573.61,4096.13 2573.61,4096.13C2573.2,4074.42 2581.74,4053.5 2597.24,4038.29C2604.32,4031.33 2612.12,4025.32 2619.44,4023.24C2619.44,4023.24 2619.44,4023.24 2619.45,4023.24C2620.6,4022.91 2621.83,4023.07 2622.86,4023.68C2623.89,4024.28 2625.56,4027.18 2625.58,4027.22C2625.58,4027.22 2625.58,4027.22 2625.58,4027.22C2634.86,4044.55 2634.79,4065.39 2625.39,4082.65C2624.34,4084.57 2623.28,4086.51 2622.24,4088.43C2611.37,4108.39 2604.61,4130.33 2602.38,4152.95C2601.67,4160.33 2601.49,4166.73 2602.46,4169.95C2602.61,4170.45 2602.27,4170.97 2601.76,4171.09C2601.25,4171.22 2600.74,4170.9 2600.61,4170.4C2599.52,4166.36 2598.15,4160.8 2598.15,4160.8C2594.29,4145.15 2592.63,4129.05 2593.2,4112.94C2593.2,4112.94 2593.2,4112.94 2593.2,4112.94C2593.49,4105.02 2594.34,4097.13 2595.76,4089.33C2596.5,4085.25 2597.31,4080.79 2597.97,4077.16C2598.02,4076.91 2597.86,4076.67 2597.61,4076.61C2597.37,4076.54 2597.11,4076.68 2597.04,4076.93C2597.02,4076.98 2596.99,4077.06 2596.97,4077.16C2589.62,4100.33 2587.76,4124.89 2591.52,4148.9C2592.56,4155.92 2593.61,4162.67 2594.5,4167.69ZM2561.16,4112.65C2561.47,4112.95 2561.94,4112.99 2562.3,4112.75C2562.66,4112.51 2562.79,4112.05 2562.62,4111.65C2560.32,4106.27 2556.67,4097.71 2556.67,4097.71C2552.38,4087.67 2544.84,4079.36 2535.27,4074.11C2535.26,4074.11 2535.26,4074.11 2535.26,4074.11C2535.17,4074.06 2535.13,4073.94 2535.18,4073.84C2535.23,4073.74 2535.35,4073.7 2535.45,4073.74C2537.02,4074.47 2538.73,4075.27 2540.29,4075.99C2543.82,4077.63 2546.98,4079.97 2549.58,4082.87C2549.58,4082.87 2549.58,4082.87 2549.58,4082.87C2556.49,4090.58 2562.01,4099.42 2565.92,4109L2567.77,4113.54C2567.97,4114.03 2568.51,4114.29 2569.03,4114.14C2569.54,4113.98 2569.85,4113.46 2569.74,4112.94C2568.74,4108.17 2567.57,4102.58 2566.54,4097.65C2564.78,4089.23 2560.99,4081.37 2555.51,4074.73C2555.51,4074.73 2555.51,4074.73 2555.51,4074.73C2548.05,4065.7 2537.33,4059.98 2525.68,4058.81C2519.95,4058.24 2513.57,4058.02 2509.18,4059.16C2508.56,4059.32 2507.43,4059.74 2506.29,4060.19C2505.3,4060.54 2504.54,4061.33 2504.21,4062.33C2503.89,4063.33 2504.05,4064.41 2504.65,4065.28C2504.64,4065.28 2504.64,4065.28 2504.65,4065.28C2506.55,4068.03 2510.8,4071.02 2515.62,4073.79C2530.08,4082.11 2543.1,4092.7 2554.18,4105.17C2556.51,4107.89 2558.9,4110.45 2561.16,4112.65Z" style="fill:white;"/>
            </g>
        </g>
    </g>
</svg>
